<?xml version="1.0" encoding="UTF-8" standalone="no"?>
<svg
   xmlns:dc="http://purl.org/dc/elements/1.1/"
   xmlns:cc="http://creativecommons.org/ns#"
   xmlns:rdf="http://www.w3.org/1999/02/22-rdf-syntax-ns#"
   xmlns:svg="http://www.w3.org/2000/svg"
   xmlns="http://www.w3.org/2000/svg"
   xmlns:sodipodi="http://sodipodi.sourceforge.net/DTD/sodipodi-0.dtd"
   xmlns:inkscape="http://www.inkscape.org/namespaces/inkscape"
   color-rendering="auto"
   color-interpolation="auto"
   text-rendering="auto"
   width="279.29279"
   stroke-miterlimit="10"
   shape-rendering="auto"
   font-weight="normal"
   height="301"
   font-style="normal"
   font-size="12"
   image-rendering="auto"
   id="svg3747"
   version="1.1"
   inkscape:version="0.48.4 r9939"
   sodipodi:docname="rvine_matrix_condSets_3.svg"
   style="font-size:12px;font-style:normal;font-weight:normal;fill:#000000;fill-opacity:1;stroke:#000000;stroke-width:1;stroke-linecap:square;stroke-linejoin:miter;stroke-miterlimit:10;stroke-opacity:1;stroke-dasharray:none;stroke-dashoffset:0;font-family:Dialog">
  <metadata
     id="metadata4231">
    <rdf:RDF>
      <cc:Work
         rdf:about="">
        <dc:format>image/svg+xml</dc:format>
        <dc:type
           rdf:resource="http://purl.org/dc/dcmitype/StillImage" />
        <dc:title />
      </cc:Work>
    </rdf:RDF>
  </metadata>
  <sodipodi:namedview
     pagecolor="#ffffff"
     bordercolor="#666666"
     borderopacity="1"
     objecttolerance="10"
     gridtolerance="10"
     guidetolerance="10"
     inkscape:pageopacity="0"
     inkscape:pageshadow="2"
     inkscape:window-width="1600"
     inkscape:window-height="1176"
     id="namedview4229"
     showgrid="false"
     inkscape:zoom="2"
     inkscape:cx="125.08433"
     inkscape:cy="115.92161"
     inkscape:window-x="0"
     inkscape:window-y="24"
     inkscape:window-maximized="1"
     inkscape:current-layer="flowRoot4307"
     fit-margin-top="0"
     fit-margin-left="0"
     fit-margin-right="0"
     fit-margin-bottom="0" />
  <!--Generated by ySVG 2.5-->
  <defs
     id="genericDefs" />
  <g
     id="g3750"
     transform="translate(-29.886655,-18.53139)">
    <defs
       id="defs1">
      <linearGradient
         x1="-245.9375"
         gradientUnits="userSpaceOnUse"
         x2="-165.9375"
         y1="-268.8125"
         y2="-228.8125"
         id="linearGradient1"
         spreadMethod="reflect">
        <stop
           stop-opacity="1"
           stop-color="rgb(232,238,247)"
           offset="0%"
           id="stop3754" />
        <stop
           stop-opacity="1"
           stop-color="rgb(183,201,227)"
           offset="100%"
           id="stop3756" />
      </linearGradient>
      <linearGradient
         x1="-1.9375"
         gradientUnits="userSpaceOnUse"
         x2="78.0625"
         y1="-268.8125"
         y2="-228.8125"
         id="linearGradient2"
         spreadMethod="reflect">
        <stop
           stop-opacity="1"
           stop-color="rgb(232,238,247)"
           offset="0%"
           id="stop3759" />
        <stop
           stop-opacity="1"
           stop-color="rgb(183,201,227)"
           offset="100%"
           id="stop3761" />
      </linearGradient>
      <linearGradient
         x1="292.0625"
         gradientUnits="userSpaceOnUse"
         x2="372.0625"
         y1="-268.8125"
         y2="-228.8125"
         id="linearGradient3"
         spreadMethod="reflect">
        <stop
           stop-opacity="1"
           stop-color="rgb(232,238,247)"
           offset="0%"
           id="stop3764" />
        <stop
           stop-opacity="1"
           stop-color="rgb(183,201,227)"
           offset="100%"
           id="stop3766" />
      </linearGradient>
      <linearGradient
         x1="497.0625"
         gradientUnits="userSpaceOnUse"
         x2="577.0625"
         y1="-82.8125"
         y2="-42.8125"
         id="linearGradient4"
         spreadMethod="reflect">
        <stop
           stop-opacity="1"
           stop-color="rgb(232,238,247)"
           offset="0%"
           id="stop3769" />
        <stop
           stop-opacity="1"
           stop-color="red"
           offset="100%"
           id="stop3771" />
      </linearGradient>
      <linearGradient
         x1="497.0625"
         gradientUnits="userSpaceOnUse"
         x2="577.0625"
         y1="-144.8125"
         y2="-104.8125"
         id="linearGradient5"
         spreadMethod="reflect">
        <stop
           stop-opacity="1"
           stop-color="rgb(232,238,247)"
           offset="0%"
           id="stop3774" />
        <stop
           stop-opacity="1"
           stop-color="red"
           offset="100%"
           id="stop3776" />
      </linearGradient>
      <linearGradient
         x1="497.0625"
         gradientUnits="userSpaceOnUse"
         x2="577.0625"
         y1="-206.8125"
         y2="-166.8125"
         id="linearGradient6"
         spreadMethod="reflect">
        <stop
           stop-opacity="1"
           stop-color="rgb(232,238,247)"
           offset="0%"
           id="stop3779" />
        <stop
           stop-opacity="1"
           stop-color="red"
           offset="100%"
           id="stop3781" />
      </linearGradient>
      <linearGradient
         x1="497.0625"
         gradientUnits="userSpaceOnUse"
         x2="577.0625"
         y1="-268.8125"
         y2="-228.8125"
         id="linearGradient7"
         spreadMethod="reflect">
        <stop
           stop-opacity="1"
           stop-color="rgb(232,238,247)"
           offset="0%"
           id="stop3784" />
        <stop
           stop-opacity="1"
           stop-color="rgb(183,201,227)"
           offset="100%"
           id="stop3786" />
      </linearGradient>
      <linearGradient
         x1="497.0625"
         gradientUnits="userSpaceOnUse"
         x2="577.0625"
         y1="-20.8125"
         y2="19.1875"
         id="linearGradient8"
         spreadMethod="reflect">
        <stop
           stop-opacity="1"
           stop-color="rgb(232,238,247)"
           offset="0%"
           id="stop3789" />
        <stop
           stop-opacity="1"
           stop-color="red"
           offset="100%"
           id="stop3791" />
      </linearGradient>
      <linearGradient
         x1="497.0625"
         gradientUnits="userSpaceOnUse"
         x2="577.0625"
         y1="41.1875"
         y2="81.1875"
         id="linearGradient9"
         spreadMethod="reflect">
        <stop
           stop-opacity="1"
           stop-color="rgb(232,238,247)"
           offset="0%"
           id="stop3794" />
        <stop
           stop-opacity="1"
           stop-color="red"
           offset="100%"
           id="stop3796" />
      </linearGradient>
      <linearGradient
         x1="497.0625"
         gradientUnits="userSpaceOnUse"
         x2="577.0625"
         y1="103.1875"
         y2="143.1875"
         id="linearGradient10"
         spreadMethod="reflect">
        <stop
           stop-opacity="1"
           stop-color="rgb(232,238,247)"
           offset="0%"
           id="stop3799" />
        <stop
           stop-opacity="1"
           stop-color="red"
           offset="100%"
           id="stop3801" />
      </linearGradient>
      <linearGradient
         x1="664.94452"
         gradientUnits="userSpaceOnUse"
         x2="744.94452"
         y1="-268.8125"
         y2="-228.8125"
         id="linearGradient11"
         spreadMethod="reflect">
        <stop
           stop-opacity="1"
           stop-color="rgb(232,238,247)"
           offset="0%"
           id="stop3804" />
        <stop
           stop-opacity="1"
           stop-color="rgb(183,201,227)"
           offset="100%"
           id="stop3806" />
      </linearGradient>
      <linearGradient
         x1="841.375"
         gradientUnits="userSpaceOnUse"
         x2="921.375"
         y1="-268.8125"
         y2="-228.8125"
         id="linearGradient12"
         spreadMethod="reflect">
        <stop
           stop-opacity="1"
           stop-color="rgb(232,238,247)"
           offset="0%"
           id="stop3809" />
        <stop
           stop-opacity="1"
           stop-color="rgb(183,201,227)"
           offset="100%"
           id="stop3811" />
      </linearGradient>
      <linearGradient
         x1="994.78351"
         gradientUnits="userSpaceOnUse"
         x2="1074.7834"
         y1="-268.8125"
         y2="-228.8125"
         id="linearGradient13"
         spreadMethod="reflect">
        <stop
           stop-opacity="1"
           stop-color="rgb(232,238,247)"
           offset="0%"
           id="stop3814" />
        <stop
           stop-opacity="1"
           stop-color="rgb(183,201,227)"
           offset="100%"
           id="stop3816" />
      </linearGradient>
      <linearGradient
         x1="633.96649"
         gradientUnits="userSpaceOnUse"
         x2="713.96649"
         y1="41.1875"
         y2="81.1875"
         id="linearGradient14"
         spreadMethod="reflect">
        <stop
           stop-opacity="1"
           stop-color="rgb(232,238,247)"
           offset="0%"
           id="stop3819" />
        <stop
           stop-opacity="1"
           stop-color="red"
           offset="100%"
           id="stop3821" />
      </linearGradient>
      <linearGradient
         x1="633.96649"
         gradientUnits="userSpaceOnUse"
         x2="713.96649"
         y1="-20.8125"
         y2="19.1875"
         id="linearGradient15"
         spreadMethod="reflect">
        <stop
           stop-opacity="1"
           stop-color="rgb(232,238,247)"
           offset="0%"
           id="stop3824" />
        <stop
           stop-opacity="1"
           stop-color="red"
           offset="100%"
           id="stop3826" />
      </linearGradient>
      <linearGradient
         x1="664.94452"
         gradientUnits="userSpaceOnUse"
         x2="744.94452"
         y1="-144.8125"
         y2="-104.8125"
         id="linearGradient16"
         spreadMethod="reflect">
        <stop
           stop-opacity="1"
           stop-color="rgb(232,238,247)"
           offset="0%"
           id="stop3829" />
        <stop
           stop-opacity="1"
           stop-color="red"
           offset="100%"
           id="stop3831" />
      </linearGradient>
      <linearGradient
         x1="664.94452"
         gradientUnits="userSpaceOnUse"
         x2="744.94452"
         y1="-206.8125"
         y2="-166.8125"
         id="linearGradient17"
         spreadMethod="reflect">
        <stop
           stop-opacity="1"
           stop-color="rgb(232,238,247)"
           offset="0%"
           id="stop3834" />
        <stop
           stop-opacity="1"
           stop-color="red"
           offset="100%"
           id="stop3836" />
      </linearGradient>
      <linearGradient
         x1="664.94452"
         gradientUnits="userSpaceOnUse"
         x2="744.94452"
         y1="-82.8125"
         y2="-42.8125"
         id="linearGradient18"
         spreadMethod="reflect">
        <stop
           stop-opacity="1"
           stop-color="rgb(232,238,247)"
           offset="0%"
           id="stop3839" />
        <stop
           stop-opacity="1"
           stop-color="red"
           offset="100%"
           id="stop3841" />
      </linearGradient>
      <linearGradient
         x1="-245.9375"
         gradientUnits="userSpaceOnUse"
         x2="-165.9375"
         y1="-20.8125"
         y2="19.1875"
         id="linearGradient19"
         spreadMethod="reflect">
        <stop
           stop-opacity="1"
           stop-color="rgb(232,238,247)"
           offset="0%"
           id="stop3844" />
        <stop
           stop-opacity="1"
           stop-color="red"
           offset="100%"
           id="stop3846" />
      </linearGradient>
      <linearGradient
         x1="-245.9375"
         gradientUnits="userSpaceOnUse"
         x2="-165.9375"
         y1="-82.8125"
         y2="-42.8125"
         id="linearGradient20"
         spreadMethod="reflect">
        <stop
           stop-opacity="1"
           stop-color="rgb(232,238,247)"
           offset="0%"
           id="stop3849" />
        <stop
           stop-opacity="1"
           stop-color="red"
           offset="100%"
           id="stop3851" />
      </linearGradient>
      <linearGradient
         x1="-245.9375"
         gradientUnits="userSpaceOnUse"
         x2="-165.9375"
         y1="-144.8125"
         y2="-104.8125"
         id="linearGradient21"
         spreadMethod="reflect">
        <stop
           stop-opacity="1"
           stop-color="rgb(232,238,247)"
           offset="0%"
           id="stop3854" />
        <stop
           stop-opacity="1"
           stop-color="red"
           offset="100%"
           id="stop3856" />
      </linearGradient>
      <linearGradient
         x1="-245.9375"
         gradientUnits="userSpaceOnUse"
         x2="-165.9375"
         y1="-206.8125"
         y2="-166.8125"
         id="linearGradient22"
         spreadMethod="reflect">
        <stop
           stop-opacity="1"
           stop-color="rgb(232,238,247)"
           offset="0%"
           id="stop3859" />
        <stop
           stop-opacity="1"
           stop-color="red"
           offset="100%"
           id="stop3861" />
      </linearGradient>
      <linearGradient
         x1="994.78351"
         gradientUnits="userSpaceOnUse"
         x2="1074.7834"
         y1="-206.8125"
         y2="-166.8125"
         id="linearGradient23"
         spreadMethod="reflect">
        <stop
           stop-opacity="1"
           stop-color="rgb(232,238,247)"
           offset="0%"
           id="stop3864" />
        <stop
           stop-opacity="1"
           stop-color="red"
           offset="100%"
           id="stop3866" />
      </linearGradient>
      <linearGradient
         x1="994.78351"
         gradientUnits="userSpaceOnUse"
         x2="1074.7834"
         y1="-144.8125"
         y2="-104.8125"
         id="linearGradient24"
         spreadMethod="reflect">
        <stop
           stop-opacity="1"
           stop-color="rgb(232,238,247)"
           offset="0%"
           id="stop3869" />
        <stop
           stop-opacity="1"
           stop-color="red"
           offset="100%"
           id="stop3871" />
      </linearGradient>
      <linearGradient
         x1="994.78351"
         gradientUnits="userSpaceOnUse"
         x2="1074.7834"
         y1="-82.8125"
         y2="-42.8125"
         id="linearGradient25"
         spreadMethod="reflect">
        <stop
           stop-opacity="1"
           stop-color="rgb(232,238,247)"
           offset="0%"
           id="stop3874" />
        <stop
           stop-opacity="1"
           stop-color="red"
           offset="100%"
           id="stop3876" />
      </linearGradient>
      <linearGradient
         x1="814.375"
         gradientUnits="userSpaceOnUse"
         x2="894.375"
         y1="-206.8125"
         y2="-166.8125"
         id="linearGradient26"
         spreadMethod="reflect">
        <stop
           stop-opacity="1"
           stop-color="rgb(232,238,247)"
           offset="0%"
           id="stop3879" />
        <stop
           stop-opacity="1"
           stop-color="red"
           offset="100%"
           id="stop3881" />
      </linearGradient>
      <linearGradient
         x1="814.375"
         gradientUnits="userSpaceOnUse"
         x2="894.375"
         y1="-144.8125"
         y2="-104.8125"
         id="linearGradient27"
         spreadMethod="reflect">
        <stop
           stop-opacity="1"
           stop-color="rgb(232,238,247)"
           offset="0%"
           id="stop3884" />
        <stop
           stop-opacity="1"
           stop-color="red"
           offset="100%"
           id="stop3886" />
      </linearGradient>
      <linearGradient
         x1="-1.9375"
         gradientUnits="userSpaceOnUse"
         x2="78.0625"
         y1="-206.8125"
         y2="-166.8125"
         id="linearGradient28"
         spreadMethod="reflect">
        <stop
           stop-opacity="1"
           stop-color="rgb(232,238,247)"
           offset="0%"
           id="stop3889" />
        <stop
           stop-opacity="1"
           stop-color="red"
           offset="100%"
           id="stop3891" />
      </linearGradient>
      <clipPath
         clipPathUnits="userSpaceOnUse"
         id="clipPath1">
        <path
           d="m 0,0 1351,0 0,443 L 0,443 0,0 z"
           id="path3894"
           inkscape:connector-curvature="0" />
      </clipPath>
      <clipPath
         clipPathUnits="userSpaceOnUse"
         id="clipPath2">
        <path
           d="m -261,-284 1351,0 0,443 -1351,0 0,-443 z"
           id="path3897"
           inkscape:connector-curvature="0" />
      </clipPath>
    </defs>
    <flowRoot
       xml:space="preserve"
       id="flowRoot4233"
       style="font-size:12px;font-style:normal;font-weight:normal;line-height:125%;letter-spacing:0px;word-spacing:0px;fill:#000000;fill-opacity:1;stroke:none;font-family:Sans"><flowRegion
         id="flowRegion4235"><rect
           id="rect4237"
           width="127.63398"
           height="368.57568"
           x="118.51727"
           y="-509.04529" /></flowRegion><flowPara
         id="flowPara4239" /></flowRoot>    <flowRoot
       xml:space="preserve"
       id="flowRoot4255"
       style="font-size:12px;font-style:normal;font-weight:normal;line-height:125%;letter-spacing:0px;word-spacing:0px;fill:#000000;fill-opacity:1;stroke:none;font-family:Sans"><flowRegion
         id="flowRegion4257"><rect
           id="rect4259"
           width="89.864738"
           height="108.09817"
           x="37.769238"
           y="-533.79065" /></flowRegion><flowPara
         id="flowPara4261" /></flowRoot>    <flowRoot
       xml:space="preserve"
       id="flowRoot4275"
       style="font-size:16px;font-style:normal;font-weight:normal;line-height:125%;letter-spacing:0px;word-spacing:0px;fill:#000000;fill-opacity:1;stroke:none;font-family:Sans"><flowRegion
         id="flowRegion4277"><rect
           id="rect4279"
           width="102.23742"
           height="179.07829"
           x="91.16713"
           y="-180.84363"
           style="font-size:16px" /></flowRegion><flowPara
         id="flowPara4281" /></flowRoot>    <flowRoot
       xml:space="preserve"
       id="flowRoot4283"
       style="font-size:16px;font-style:normal;font-weight:normal;line-height:125%;letter-spacing:0px;word-spacing:0px;fill:#000000;fill-opacity:1;stroke:none;font-family:Sans"><flowRegion
         id="flowRegion4285"><rect
           id="rect4287"
           width="57"
           height="149"
           x="108"
           y="-255"
           style="font-size:16px" /></flowRegion><flowPara
         id="flowPara4289" /></flowRoot>    <flowRoot
       xml:space="preserve"
       id="flowRoot4291"
       style="font-size:12px;font-style:normal;font-weight:normal;line-height:125%;letter-spacing:0px;word-spacing:0px;fill:#000000;fill-opacity:1;stroke:none;font-family:Sans"><flowRegion
         id="flowRegion4293"><rect
           id="rect4295"
           width="120"
           height="173"
           x="41"
           y="-288" /></flowRegion><flowPara
         id="flowPara4297" /></flowRoot>    <flowRoot
       xml:space="preserve"
       id="flowRoot4299"
       style="font-size:16px;font-style:normal;font-weight:normal;line-height:125%;letter-spacing:0px;word-spacing:0px;fill:#000000;fill-opacity:1;stroke:none;font-family:Sans"><flowRegion
         id="flowRegion4301"><rect
           id="rect4303"
           width="155"
           height="152"
           x="46"
           y="-286"
           style="font-size:16px" /></flowRegion><flowPara
         id="flowPara4305" /></flowRoot>    <g
       transform="matrix(1.9419355,0,0,1.9419355,-65.753668,599.58524)"
       style="font-size:12px;font-style:normal;font-weight:normal;line-height:150%;letter-spacing:2.29999995px;word-spacing:0px;fill:#000000;fill-opacity:1;stroke:none;font-family:Sans"
       id="flowRoot4307">
      <path
         d="m 56.445312,-292.30752 0,1.10937 -1.421875,0 0,2.79688 -1.289062,0 0,-2.79688 -4.484375,0 0,-1 4.914062,-7.01562 0.859375,0 0,6.90625 1.421875,0 m -2.710937,0 0,-5.25782 -3.71875,5.25782 3.71875,0"
         style="font-size:16px;line-height:150%;font-family:Times New Roman;-inkscape-font-specification:Times New Roman;fill:#0000ff"
         id="path3110" />
      <path
         d="m 50.609375,-274.99502 5.679687,0 0,0.29687 -3.53125,10.51563 -0.875,0 3.164063,-9.53907 -2.914063,0 c -0.588544,10e-6 -1.007814,0.0703 -1.257812,0.21094 -0.437501,0.23959 -0.789064,0.60938 -1.054688,1.10938 l -0.226562,-0.0859 1.015625,-2.50781"
         style="font-size:16px;line-height:150%;font-family:Times New Roman;-inkscape-font-specification:Times New Roman"
         id="path3112" />
      <path
         d="m 78.845312,-274.99502 -0.609375,1.32812 -3.1875,0 -0.695312,1.42188 c 1.380204,0.20313 2.473953,0.71615 3.28125,1.53906 0.692702,0.70834 1.039055,1.54167 1.039062,2.5 -7e-6,0.55729 -0.11459,1.07292 -0.34375,1.54687 -0.223964,0.47396 -0.507818,0.87761 -0.851562,1.21094 -0.343756,0.33334 -0.726568,0.60156 -1.148438,0.80469 -0.598962,0.28646 -1.213545,0.42969 -1.84375,0.42969 -0.635418,0 -1.09896,-0.10677 -1.390625,-0.32032 -0.286459,-0.21875 -0.429688,-0.45833 -0.429687,-0.71875 -1e-6,-0.14583 0.05989,-0.27343 0.179687,-0.38281 0.119791,-0.11458 0.270832,-0.17187 0.453125,-0.17187 0.135415,0 0.252603,0.0208 0.351563,0.0625 0.104164,0.0417 0.278643,0.14843 0.523437,0.32031 0.390622,0.27083 0.786455,0.40625 1.1875,0.40625 0.609371,0 1.143225,-0.22917 1.601563,-0.6875 0.463536,-0.46354 0.695306,-1.02604 0.695312,-1.6875 -6e-6,-0.64062 -0.205735,-1.23698 -0.617187,-1.78906 -0.411463,-0.55729 -0.979171,-0.98698 -1.703125,-1.28907 -0.567712,-0.23437 -1.341148,-0.36978 -2.320313,-0.40625 l 2.03125,-4.11718 3.796875,0"
         style="font-size:16px;line-height:150%;font-family:Times New Roman;-inkscape-font-specification:Times New Roman;fill:#0000ff"
         id="path3114" />
      <path
         d="m 56.171875,-251.21377 0,0.28906 c -0.687506,0.0677 -1.250006,0.20574 -1.6875,0.41406 -0.432297,0.20314 -0.861984,0.51564 -1.289063,0.9375 -0.421878,0.42188 -0.77344,0.89324 -1.054687,1.41406 -0.276045,0.51564 -0.507815,1.13022 -0.695313,1.84375 0.749997,-0.51561 1.502601,-0.77343 2.257813,-0.77343 0.723953,0 1.351556,0.29167 1.882812,0.875 0.531243,0.58333 0.796868,1.33333 0.796875,2.25 -7e-6,0.88542 -0.268236,1.69271 -0.804687,2.42187 -0.645839,0.88542 -1.500005,1.32813 -2.5625,1.32813 -0.723962,0 -1.338544,-0.23959 -1.84375,-0.71875 -0.989585,-0.93229 -1.484376,-2.14063 -1.484375,-3.625 -10e-7,-0.94792 0.190103,-1.84896 0.570312,-2.70313 0.380207,-0.85416 0.921873,-1.61197 1.625,-2.27344 0.70833,-0.66144 1.385413,-1.10676 2.03125,-1.33593 0.645828,-0.22916 1.24739,-0.34374 1.804688,-0.34375 l 0.453125,0 m -4.859375,5.46875 c -0.09375,0.70313 -0.140627,1.27083 -0.140625,1.70312 -2e-6,0.5 0.09114,1.04427 0.273437,1.63281 0.187498,0.58334 0.463539,1.04688 0.828125,1.39063 0.265622,0.24479 0.588538,0.36719 0.96875,0.36719 0.453121,0 0.856766,-0.21355 1.210938,-0.64063 0.359369,-0.42708 0.539057,-1.03646 0.539062,-1.82812 -5e-6,-0.89063 -0.177089,-1.66146 -0.53125,-2.3125 -0.354171,-0.65104 -0.856775,-0.97656 -1.507812,-0.97657 -0.19792,1e-5 -0.411462,0.0417 -0.640625,0.125 -0.223961,0.0833 -0.557294,0.26303 -1,0.53907"
         style="font-size:16px;line-height:150%;font-family:Times New Roman;-inkscape-font-specification:Times New Roman"
         id="path3116" />
      <path
         d="m 73.509375,-250.99502 5.679687,0 0,0.29687 -3.53125,10.51563 -0.875,0 3.164063,-9.53907 -2.914063,0 c -0.588544,1e-5 -1.007815,0.0703 -1.257812,0.21094 -0.437502,0.23959 -0.789064,0.60938 -1.054688,1.10938 l -0.226562,-0.0859 1.015625,-2.50781"
         style="font-size:16px;line-height:150%;font-family:Times New Roman;-inkscape-font-specification:Times New Roman"
         id="path3118" />
      <path
         d="m 96.674999,-249.95596 2.578125,-1.25781 0.257813,0 0,8.94531 c -5e-6,0.59375 0.02343,0.96354 0.07031,1.10937 0.05208,0.14584 0.156245,0.25782 0.3125,0.33594 0.156241,0.0781 0.473951,0.1224 0.953121,0.13281 l 0,0.28907 -3.984371,0 0,-0.28907 c 0.499998,-0.0104 0.822914,-0.0521 0.96875,-0.125 0.14583,-0.0781 0.247393,-0.17968 0.304688,-0.30468 0.05729,-0.13021 0.08593,-0.51302 0.08594,-1.14844 l 0,-5.71875 c -3e-6,-0.77083 -0.02604,-1.26562 -0.07813,-1.48438 -0.03646,-0.16665 -0.10417,-0.28905 -0.203125,-0.36718 -0.09375,-0.0781 -0.208336,-0.11718 -0.34375,-0.11719 -0.192711,1e-5 -0.46094,0.0807 -0.804687,0.24219 l -0.117188,-0.24219"
         style="font-size:16px;line-height:150%;font-family:Times New Roman;-inkscape-font-specification:Times New Roman;fill:#0000ff"
         id="path3120" />
      <path
         d="m 55.945312,-226.99502 -0.609375,1.32812 -3.1875,0 -0.695312,1.42188 c 1.380204,0.20313 2.473953,0.71615 3.28125,1.53906 0.692702,0.70834 1.039056,1.54167 1.039062,2.5 -6e-6,0.55729 -0.114589,1.07292 -0.34375,1.54687 -0.223964,0.47396 -0.507818,0.87761 -0.851562,1.21094 -0.343755,0.33334 -0.726567,0.60156 -1.148438,0.80469 -0.598962,0.28646 -1.213544,0.42969 -1.84375,0.42969 -0.635418,0 -1.098959,-0.10677 -1.390625,-0.32032 -0.286459,-0.21875 -0.429688,-0.45833 -0.429687,-0.71875 -10e-7,-0.14583 0.05989,-0.27343 0.179687,-0.38281 0.119791,-0.11458 0.270833,-0.17187 0.453125,-0.17187 0.135416,0 0.252603,0.0208 0.351563,0.0625 0.104165,0.0417 0.278644,0.14843 0.523437,0.32031 0.390623,0.27083 0.786456,0.40625 1.1875,0.40625 0.609371,0 1.143225,-0.22917 1.601563,-0.6875 0.463536,-0.46354 0.695307,-1.02604 0.695312,-1.6875 -5e-6,-0.64062 -0.205734,-1.23698 -0.617187,-1.78906 -0.411463,-0.55729 -0.979171,-0.98698 -1.703125,-1.28907 -0.567711,-0.23437 -1.341148,-0.36978 -2.320313,-0.40625 l 2.03125,-4.11718 3.796875,0"
         style="font-size:16px;line-height:150%;font-family:Times New Roman;-inkscape-font-specification:Times New Roman"
         id="path3122" />
      <path
         d="m 79.071875,-227.21377 0,0.28906 c -0.687507,0.0677 -1.250006,0.20574 -1.6875,0.41406 -0.432297,0.20314 -0.861984,0.51564 -1.289063,0.9375 -0.421879,0.42188 -0.773441,0.89324 -1.054687,1.41406 -0.276045,0.51564 -0.507816,1.13022 -0.695313,1.84375 0.749997,-0.51561 1.5026,-0.77343 2.257813,-0.77343 0.723953,0 1.351556,0.29167 1.882812,0.875 0.531243,0.58333 0.796868,1.33333 0.796875,2.25 -7e-6,0.88542 -0.268236,1.69271 -0.804687,2.42187 -0.64584,0.88542 -1.500005,1.32813 -2.5625,1.32813 -0.723962,0 -1.338545,-0.23959 -1.84375,-0.71875 -0.989585,-0.93229 -1.484376,-2.14063 -1.484375,-3.625 -1e-6,-0.94792 0.190103,-1.84896 0.570312,-2.70313 0.380207,-0.85416 0.921873,-1.61197 1.625,-2.27344 0.70833,-0.66144 1.385413,-1.10676 2.03125,-1.33593 0.645828,-0.22916 1.24739,-0.34374 1.804688,-0.34375 l 0.453125,0 m -4.859375,5.46875 c -0.09375,0.70313 -0.140628,1.27083 -0.140625,1.70312 -3e-6,0.5 0.09114,1.04427 0.273437,1.63281 0.187497,0.58334 0.463539,1.04688 0.828125,1.39063 0.265622,0.24479 0.588538,0.36719 0.96875,0.36719 0.45312,0 0.856766,-0.21355 1.210938,-0.64063 0.359369,-0.42708 0.539056,-1.03646 0.539062,-1.82812 -6e-6,-0.89063 -0.177089,-1.66146 -0.53125,-2.3125 -0.354172,-0.65104 -0.856775,-0.97656 -1.507812,-0.97657 -0.197921,1e-5 -0.411462,0.0417 -0.640625,0.125 -0.223962,0.0833 -0.557295,0.26303 -1,0.53907"
         style="font-size:16px;line-height:150%;font-family:Times New Roman;-inkscape-font-specification:Times New Roman"
         id="path3124" />
      <path
         d="m 96.409374,-226.99502 5.679686,0 0,0.29687 -3.531248,10.51563 -0.875,0 3.164058,-9.53907 -2.914058,0 c -0.588544,1e-5 -1.007815,0.0703 -1.257813,0.21094 -0.437501,0.23959 -0.789063,0.60938 -1.054687,1.10938 l -0.226563,-0.0859 1.015625,-2.50781"
         style="font-size:16px;line-height:150%;font-family:Times New Roman;-inkscape-font-specification:Times New Roman"
         id="path3126" />
      <path
         d="m 119.30937,-226.99502 5.67969,0 0,0.29687 -3.53125,10.51563 -0.875,0 3.16406,-9.53907 -2.91406,0 c -0.58854,1e-5 -1.00782,0.0703 -1.25781,0.21094 -0.4375,0.23959 -0.78907,0.60938 -1.05469,1.10938 l -0.22656,-0.0859 1.01562,-2.50781"
         style="font-size:16px;line-height:150%;font-family:Times New Roman;-inkscape-font-specification:Times New Roman;fill:#0000ff"
         id="path3128" />
      <path
         d="m 50.875,-201.95596 2.578125,-1.25781 0.257812,0 0,8.94531 c -4e-6,0.59375 0.02343,0.96354 0.07031,1.10937 0.05208,0.14584 0.156245,0.25782 0.3125,0.33594 0.156245,0.0781 0.473953,0.1224 0.953125,0.13281 l 0,0.28907 -3.984375,0 0,-0.28907 c 0.499997,-0.0104 0.822914,-0.0521 0.96875,-0.125 0.14583,-0.0781 0.247393,-0.17968 0.304687,-0.30468 0.05729,-0.13021 0.08593,-0.51302 0.08594,-1.14844 l 0,-5.71875 c -3e-6,-0.77083 -0.02605,-1.26562 -0.07813,-1.48438 -0.03646,-0.16665 -0.10417,-0.28905 -0.203125,-0.36718 -0.09375,-0.0781 -0.208336,-0.11718 -0.34375,-0.11719 -0.192711,1e-5 -0.46094,0.0807 -0.804688,0.24219 L 50.875,-201.95596"
         style="font-size:16px;line-height:150%;font-family:Times New Roman;-inkscape-font-specification:Times New Roman;fill:#0000ff"
         id="path3130" />
      <path
         d="m 73.775,-201.95596 2.578125,-1.25781 0.257812,0 0,8.94531 c -5e-6,0.59375 0.02343,0.96354 0.07031,1.10937 0.05208,0.14584 0.156245,0.25782 0.3125,0.33594 0.156244,0.0781 0.473952,0.1224 0.953125,0.13281 l 0,0.28907 -3.984375,0 0,-0.28907 c 0.499997,-0.0104 0.822913,-0.0521 0.96875,-0.125 0.14583,-0.0781 0.247392,-0.17968 0.304687,-0.30468 0.05729,-0.13021 0.08593,-0.51302 0.08594,-1.14844 l 0,-5.71875 c -4e-6,-0.77083 -0.02605,-1.26562 -0.07813,-1.48438 -0.03646,-0.16665 -0.10417,-0.28905 -0.203125,-0.36718 -0.09375,-0.0781 -0.208337,-0.11718 -0.34375,-0.11719 -0.192711,1e-5 -0.46094,0.0807 -0.804688,0.24219 L 73.775,-201.95596"
         style="font-size:16px;line-height:150%;font-family:Times New Roman;-inkscape-font-specification:Times New Roman;fill:#0000ff"
         id="path3132" />
      <path
         d="m 101.97187,-203.21377 0,0.28906 c -0.6875,0.0677 -1.25,0.20574 -1.6875,0.41406 -0.432292,0.20314 -0.86198,0.51564 -1.289058,0.9375 -0.421879,0.42188 -0.773441,0.89324 -1.054688,1.41406 -0.276044,0.51564 -0.507815,1.13022 -0.695312,1.84375 0.749997,-0.51561 1.5026,-0.77343 2.257812,-0.77343 0.723956,0 1.351556,0.29167 1.882816,0.875 0.53124,0.58333 0.79686,1.33333 0.79687,2.25 -1e-5,0.88542 -0.26823,1.69271 -0.80469,2.42187 -0.64584,0.88542 -1.500001,1.32813 -2.562496,1.32813 -0.723961,0 -1.338544,-0.23959 -1.84375,-0.71875 -0.989584,-0.93229 -1.484375,-2.14063 -1.484375,-3.625 0,-0.94792 0.190104,-1.84896 0.570313,-2.70313 0.380206,-0.85416 0.921873,-1.61197 1.625,-2.27344 0.708329,-0.66144 1.385412,-1.10676 2.03125,-1.33593 0.645828,-0.22916 1.247388,-0.34374 1.804688,-0.34375 l 0.45312,0 m -4.859371,5.46875 c -0.09375,0.70313 -0.140627,1.27083 -0.140625,1.70312 -2e-6,0.5 0.09114,1.04427 0.273438,1.63281 0.187497,0.58334 0.463538,1.04688 0.828125,1.39063 0.265621,0.24479 0.588538,0.36719 0.96875,0.36719 0.45312,0 0.856765,-0.21355 1.210933,-0.64063 0.35937,-0.42708 0.53906,-1.03646 0.53907,-1.82812 -1e-5,-0.89063 -0.17709,-1.66146 -0.53125,-2.3125 -0.354175,-0.65104 -0.856779,-0.97656 -1.507816,-0.97657 -0.19792,1e-5 -0.411462,0.0417 -0.640625,0.125 -0.223961,0.0833 -0.557294,0.26303 -1,0.53907"
         style="font-size:16px;line-height:150%;font-family:Times New Roman;-inkscape-font-specification:Times New Roman;fill:#0000ff"
         id="path3134" />
      <path
         d="m 125.03593,-194.44034 -0.74218,2.03907 -6.25,0 0,-0.28907 c 1.83854,-1.67708 3.13281,-3.04687 3.88281,-4.10937 0.74999,-1.0625 1.12499,-2.03385 1.125,-2.91406 -10e-6,-0.67187 -0.20573,-1.22395 -0.61719,-1.65625 -0.41146,-0.43229 -0.90365,-0.64843 -1.47656,-0.64844 -0.52084,1e-5 -0.98959,0.15365 -1.40625,0.46094 -0.41146,0.30209 -0.71615,0.7474 -0.91406,1.33593 l -0.28907,0 c 0.13021,-0.96353 0.46355,-1.70311 1,-2.21875 0.54167,-0.51561 1.21615,-0.77342 2.02344,-0.77343 0.85937,1e-5 1.57552,0.27605 2.14844,0.82812 0.57812,0.55209 0.86718,1.20313 0.86719,1.95313 -1e-5,0.53646 -0.12501,1.07292 -0.375,1.60937 -0.38543,0.84376 -1.01043,1.73698 -1.875,2.67969 -1.29688,1.41667 -2.10678,2.27083 -2.42969,2.5625 l 2.76562,0 c 0.5625,0 0.95573,-0.0208 1.17969,-0.0625 0.22916,-0.0417 0.43489,-0.125 0.61719,-0.25 0.18228,-0.13021 0.34114,-0.3125 0.47656,-0.54688 l 0.28906,0"
         style="font-size:16px;line-height:150%;font-family:Times New Roman;-inkscape-font-specification:Times New Roman;fill:#0000ff"
         id="path3136" />
      <path
         d="m 147.77187,-203.21377 0,0.28906 c -0.6875,0.0677 -1.25,0.20574 -1.6875,0.41406 -0.43229,0.20314 -0.86198,0.51564 -1.28906,0.9375 -0.42188,0.42188 -0.77344,0.89324 -1.05469,1.41406 -0.27604,0.51564 -0.50781,1.13022 -0.69531,1.84375 0.75,-0.51561 1.5026,-0.77343 2.25781,-0.77343 0.72396,0 1.35156,0.29167 1.88282,0.875 0.53124,0.58333 0.79686,1.33333 0.79687,2.25 -1e-5,0.88542 -0.26824,1.69271 -0.80469,2.42187 -0.64584,0.88542 -1.5,1.32813 -2.5625,1.32813 -0.72396,0 -1.33854,-0.23959 -1.84375,-0.71875 -0.98958,-0.93229 -1.48437,-2.14063 -1.48437,-3.625 0,-0.94792 0.1901,-1.84896 0.57031,-2.70313 0.38021,-0.85416 0.92187,-1.61197 1.625,-2.27344 0.70833,-0.66144 1.38541,-1.10676 2.03125,-1.33593 0.64583,-0.22916 1.24739,-0.34374 1.80469,-0.34375 l 0.45312,0 m -4.85937,5.46875 c -0.0937,0.70313 -0.14063,1.27083 -0.14063,1.70312 0,0.5 0.0911,1.04427 0.27344,1.63281 0.1875,0.58334 0.46354,1.04688 0.82813,1.39063 0.26562,0.24479 0.58853,0.36719 0.96875,0.36719 0.45312,0 0.85676,-0.21355 1.21093,-0.64063 0.35937,-0.42708 0.53906,-1.03646 0.53907,-1.82812 -10e-6,-0.89063 -0.17709,-1.66146 -0.53125,-2.3125 -0.35418,-0.65104 -0.85678,-0.97656 -1.50782,-0.97657 -0.19792,1e-5 -0.41146,0.0417 -0.64062,0.125 -0.22396,0.0833 -0.5573,0.26303 -1,0.53907"
         style="font-size:16px;line-height:150%;font-family:Times New Roman;-inkscape-font-specification:Times New Roman"
         id="path3138" />
      <path
         d="m 56.335937,-170.44034 -0.742187,2.03907 -6.25,0 0,-0.28907 c 1.838539,-1.67708 3.132809,-3.04687 3.882812,-4.10937 0.749996,-1.0625 1.124995,-2.03385 1.125,-2.91406 -5e-6,-0.67187 -0.205734,-1.22395 -0.617187,-1.65625 -0.411463,-0.43229 -0.90365,-0.64843 -1.476563,-0.64844 -0.520836,1e-5 -0.989585,0.15365 -1.40625,0.46094 -0.411459,0.30209 -0.716146,0.7474 -0.914062,1.33593 l -0.289063,0 c 0.130208,-0.96353 0.463541,-1.70311 1,-2.21875 0.541665,-0.51561 1.216143,-0.77342 2.023438,-0.77343 0.85937,1e-5 1.575516,0.27605 2.148437,0.82812 0.578119,0.55209 0.867181,1.20313 0.867188,1.95313 -7e-6,0.53646 -0.125007,1.07292 -0.375,1.60937 -0.385423,0.84376 -1.010422,1.73698 -1.875,2.67969 -1.296878,1.41667 -2.106773,2.27083 -2.429688,2.5625 l 2.765625,0 c 0.562495,0 0.955724,-0.0208 1.179688,-0.0625 0.22916,-0.0417 0.434889,-0.125 0.617187,-0.25 0.182285,-0.13021 0.341139,-0.3125 0.476563,-0.54688 l 0.289062,0"
         style="font-size:16px;line-height:150%;font-family:Times New Roman;-inkscape-font-specification:Times New Roman;fill:#0000ff"
         id="path3140" />
      <path
         d="m 72.7125,-176.9794 c 0.302082,-0.71353 0.68229,-1.26301 1.140625,-1.64844 0.463539,-0.39061 1.039059,-0.58592 1.726562,-0.58593 0.848954,1e-5 1.499995,0.27605 1.953125,0.82812 0.343744,0.41147 0.515619,0.85157 0.515625,1.32031 -6e-6,0.77084 -0.484381,1.56772 -1.453125,2.39063 0.651036,0.25521 1.143223,0.6198 1.476563,1.09375 0.333326,0.47396 0.499993,1.03125 0.5,1.67187 -7e-6,0.91667 -0.291673,1.71094 -0.875,2.38282 -0.760422,0.875 -1.861983,1.3125 -3.304688,1.3125 -0.713543,0 -1.200522,-0.0885 -1.460937,-0.26563 -0.255209,-0.17708 -0.382814,-0.36719 -0.382813,-0.57031 -1e-6,-0.15104 0.05989,-0.28385 0.179688,-0.39844 0.124999,-0.11458 0.273436,-0.17187 0.445312,-0.17187 0.130207,0 0.263019,0.0208 0.398438,0.0625 0.08854,0.026 0.28906,0.12239 0.601562,0.28906 0.312498,0.16146 0.528643,0.25781 0.648438,0.28906 0.192705,0.0573 0.398434,0.0859 0.617187,0.0859 0.531246,0 0.992183,-0.20573 1.382813,-0.61719 0.395828,-0.41146 0.593744,-0.89843 0.59375,-1.46094 -6e-6,-0.41145 -0.09115,-0.81249 -0.273438,-1.20312 -0.135422,-0.29166 -0.283859,-0.51302 -0.445312,-0.66406 -0.223963,-0.20833 -0.531255,-0.39583 -0.921875,-0.5625 -0.390629,-0.17187 -0.789066,-0.25781 -1.195313,-0.25782 l -0.25,0 0,-0.23437 c 0.411456,-0.0521 0.822914,-0.20052 1.234375,-0.44531 0.416663,-0.24479 0.718746,-0.53906 0.90625,-0.88282 0.187495,-0.34374 0.281245,-0.72134 0.28125,-1.13281 -5e-6,-0.53645 -0.169275,-0.96874 -0.507812,-1.29687 -0.333338,-0.33333 -0.750004,-0.49999 -1.25,-0.5 -0.807294,1e-5 -1.481773,0.4323 -2.023438,1.29687 l -0.257812,-0.125"
         style="font-size:16px;line-height:150%;font-family:Times New Roman;-inkscape-font-specification:Times New Roman;fill:#0000ff"
         id="path3142" />
      <path
         d="m 95.612499,-176.9794 c 0.302082,-0.71353 0.68229,-1.26301 1.140625,-1.64844 0.463539,-0.39061 1.03906,-0.58592 1.726563,-0.58593 0.848954,1e-5 1.499995,0.27605 1.953123,0.82812 0.34375,0.41147 0.51562,0.85157 0.51563,1.32031 -1e-5,0.77084 -0.48438,1.56772 -1.453128,2.39063 0.651038,0.25521 1.143228,0.6198 1.476558,1.09375 0.33333,0.47396 0.5,1.03125 0.5,1.67187 0,0.91667 -0.29167,1.71094 -0.875,2.38282 -0.760417,0.875 -1.861979,1.3125 -3.304683,1.3125 -0.713544,0 -1.200522,-0.0885 -1.460938,-0.26563 -0.255209,-0.17708 -0.382813,-0.36719 -0.382812,-0.57031 -10e-7,-0.15104 0.05989,-0.28385 0.179687,-0.39844 0.124999,-0.11458 0.273437,-0.17187 0.445313,-0.17187 0.130207,0 0.263019,0.0208 0.398437,0.0625 0.08854,0.026 0.289061,0.12239 0.601563,0.28906 0.312497,0.16146 0.528643,0.25781 0.648437,0.28906 0.192705,0.0573 0.398434,0.0859 0.617188,0.0859 0.531246,0 0.992183,-0.20573 1.382812,-0.61719 0.395826,-0.41146 0.593746,-0.89843 0.593746,-1.46094 0,-0.41145 -0.0911,-0.81249 -0.27343,-1.20312 -0.135425,-0.29166 -0.283862,-0.51302 -0.445316,-0.66406 -0.223963,-0.20833 -0.531254,-0.39583 -0.921875,-0.5625 -0.390628,-0.17187 -0.789065,-0.25781 -1.195312,-0.25782 l -0.25,0 0,-0.23437 c 0.411455,-0.0521 0.822913,-0.20052 1.234375,-0.44531 0.416662,-0.24479 0.718745,-0.53906 0.90625,-0.88282 0.187495,-0.34374 0.281245,-0.72134 0.28125,-1.13281 -5e-6,-0.53645 -0.169276,-0.96874 -0.507813,-1.29687 -0.333337,-0.33333 -0.750003,-0.49999 -1.25,-0.5 -0.807294,1e-5 -1.481772,0.4323 -2.023437,1.29687 l -0.257813,-0.125"
         style="font-size:16px;line-height:150%;font-family:Times New Roman;-inkscape-font-specification:Times New Roman;fill:#0000ff"
         id="path3144" />
      <path
         d="m 118.5125,-176.9794 c 0.30208,-0.71353 0.68229,-1.26301 1.14062,-1.64844 0.46354,-0.39061 1.03906,-0.58592 1.72656,-0.58593 0.84896,1e-5 1.5,0.27605 1.95313,0.82812 0.34374,0.41147 0.51562,0.85157 0.51562,1.32031 0,0.77084 -0.48438,1.56772 -1.45312,2.39063 0.65104,0.25521 1.14322,0.6198 1.47656,1.09375 0.33333,0.47396 0.5,1.03125 0.5,1.67187 0,0.91667 -0.29167,1.71094 -0.875,2.38282 -0.76042,0.875 -1.86198,1.3125 -3.30469,1.3125 -0.71354,0 -1.20052,-0.0885 -1.46093,-0.26563 -0.25521,-0.17708 -0.38282,-0.36719 -0.38282,-0.57031 0,-0.15104 0.0599,-0.28385 0.17969,-0.39844 0.125,-0.11458 0.27344,-0.17187 0.44531,-0.17187 0.13021,0 0.26302,0.0208 0.39844,0.0625 0.0885,0.026 0.28906,0.12239 0.60156,0.28906 0.3125,0.16146 0.52865,0.25781 0.64844,0.28906 0.19271,0.0573 0.39844,0.0859 0.61719,0.0859 0.53125,0 0.99218,-0.20573 1.38281,-0.61719 0.39583,-0.41146 0.59375,-0.89843 0.59375,-1.46094 0,-0.41145 -0.0911,-0.81249 -0.27344,-1.20312 -0.13542,-0.29166 -0.28385,-0.51302 -0.44531,-0.66406 -0.22396,-0.20833 -0.53125,-0.39583 -0.92187,-0.5625 -0.39063,-0.17187 -0.78907,-0.25781 -1.19532,-0.25782 l -0.25,0 0,-0.23437 c 0.41146,-0.0521 0.82292,-0.20052 1.23438,-0.44531 0.41666,-0.24479 0.71875,-0.53906 0.90625,-0.88282 0.18749,-0.34374 0.28124,-0.72134 0.28125,-1.13281 -10e-6,-0.53645 -0.16928,-0.96874 -0.50781,-1.29687 -0.33334,-0.33333 -0.75001,-0.49999 -1.25,-0.5 -0.8073,1e-5 -1.48178,0.4323 -2.02344,1.29687 l -0.25781,-0.125"
         style="font-size:16px;line-height:150%;font-family:Times New Roman;-inkscape-font-specification:Times New Roman;fill:#0000ff"
         id="path3146" />
      <path
         d="m 147.93594,-170.44034 -0.74219,2.03907 -6.25,0 0,-0.28907 c 1.83854,-1.67708 3.13281,-3.04687 3.88281,-4.10937 0.75,-1.0625 1.125,-2.03385 1.125,-2.91406 0,-0.67187 -0.20573,-1.22395 -0.61719,-1.65625 -0.41146,-0.43229 -0.90365,-0.64843 -1.47656,-0.64844 -0.52084,1e-5 -0.98958,0.15365 -1.40625,0.46094 -0.41146,0.30209 -0.71615,0.7474 -0.91406,1.33593 l -0.28906,0 c 0.1302,-0.96353 0.46354,-1.70311 1,-2.21875 0.54166,-0.51561 1.21614,-0.77342 2.02343,-0.77343 0.85937,1e-5 1.57552,0.27605 2.14844,0.82812 0.57812,0.55209 0.86718,1.20313 0.86719,1.95313 -1e-5,0.53646 -0.12501,1.07292 -0.375,1.60937 -0.38542,0.84376 -1.01042,1.73698 -1.875,2.67969 -1.29688,1.41667 -2.10677,2.27083 -2.42969,2.5625 l 2.76563,0 c 0.56249,0 0.95572,-0.0208 1.17968,-0.0625 0.22916,-0.0417 0.43489,-0.125 0.61719,-0.25 0.18229,-0.13021 0.34114,-0.3125 0.47656,-0.54688 l 0.28907,0"
         style="font-size:16px;line-height:150%;font-family:Times New Roman;-inkscape-font-specification:Times New Roman"
         id="path3148" />
      <path
         d="m 170.83594,-170.44034 -0.74219,2.03907 -6.25,0 0,-0.28907 c 1.83854,-1.67708 3.13281,-3.04687 3.88281,-4.10937 0.75,-1.0625 1.125,-2.03385 1.125,-2.91406 0,-0.67187 -0.20573,-1.22395 -0.61719,-1.65625 -0.41146,-0.43229 -0.90364,-0.64843 -1.47656,-0.64844 -0.52083,1e-5 -0.98958,0.15365 -1.40625,0.46094 -0.41146,0.30209 -0.71614,0.7474 -0.91406,1.33593 l -0.28906,0 c 0.13021,-0.96353 0.46354,-1.70311 1,-2.21875 0.54166,-0.51561 1.21614,-0.77342 2.02343,-0.77343 0.85938,1e-5 1.57552,0.27605 2.14844,0.82812 0.57812,0.55209 0.86718,1.20313 0.86719,1.95313 -1e-5,0.53646 -0.12501,1.07292 -0.375,1.60937 -0.38542,0.84376 -1.01042,1.73698 -1.875,2.67969 -1.29688,1.41667 -2.10677,2.27083 -2.42969,2.5625 l 2.76563,0 c 0.56249,0 0.95572,-0.0208 1.17968,-0.0625 0.22917,-0.0417 0.43489,-0.125 0.61719,-0.25 0.18229,-0.13021 0.34114,-0.3125 0.47656,-0.54688 l 0.28907,0"
         style="font-size:16px;line-height:150%;font-family:Times New Roman;-inkscape-font-specification:Times New Roman"
         id="path3150" />
      <path
         d="m 49.8125,-152.9794 c 0.302082,-0.71353 0.68229,-1.26301 1.140625,-1.64844 0.463539,-0.39061 1.03906,-0.58592 1.726562,-0.58593 0.848954,1e-5 1.499995,0.27605 1.953125,0.82812 0.343745,0.41147 0.515619,0.85157 0.515625,1.32031 -6e-6,0.77084 -0.48438,1.56772 -1.453125,2.39063 0.651037,0.25521 1.143224,0.6198 1.476563,1.09375 0.333327,0.47396 0.499993,1.03125 0.5,1.67187 -7e-6,0.91667 -0.291673,1.71094 -0.875,2.38282 -0.760422,0.875 -1.861983,1.3125 -3.304688,1.3125 -0.713543,0 -1.200522,-0.0885 -1.460937,-0.26563 -0.255209,-0.17708 -0.382813,-0.36719 -0.382813,-0.57031 0,-0.15104 0.0599,-0.28385 0.179688,-0.39844 0.124999,-0.11458 0.273436,-0.17187 0.445312,-0.17187 0.130207,0 0.26302,0.0208 0.398438,0.0625 0.08854,0.026 0.289061,0.12239 0.601562,0.28906 0.312498,0.16146 0.528644,0.25781 0.648438,0.28906 0.192705,0.0573 0.398434,0.0859 0.617187,0.0859 0.531246,0 0.992183,-0.20573 1.382813,-0.61719 0.395828,-0.41146 0.593744,-0.89843 0.59375,-1.46094 -6e-6,-0.41145 -0.09115,-0.81249 -0.273438,-1.20312 -0.135421,-0.29166 -0.283859,-0.51302 -0.445312,-0.66406 -0.223963,-0.20833 -0.531254,-0.39583 -0.921875,-0.5625 -0.390628,-0.17187 -0.789066,-0.25781 -1.195313,-0.25782 l -0.25,0 0,-0.23437 c 0.411456,-0.0521 0.822914,-0.20052 1.234375,-0.44531 0.416663,-0.24479 0.718746,-0.53906 0.90625,-0.88282 0.187496,-0.34374 0.281246,-0.72134 0.28125,-1.13281 -4e-6,-0.53645 -0.169275,-0.96874 -0.507812,-1.29687 -0.333337,-0.33333 -0.750004,-0.49999 -1.25,-0.5 -0.807294,1e-5 -1.481772,0.4323 -2.023438,1.29687 l -0.257812,-0.125"
         style="font-size:16px;line-height:150%;font-family:Times New Roman;-inkscape-font-specification:Times New Roman;fill:#0000ff"
         id="path3152" />
      <path
         d="m 79.235937,-146.44034 -0.742187,2.03907 -6.25,0 0,-0.28907 c 1.838539,-1.67708 3.132809,-3.04687 3.882812,-4.10937 0.749995,-1.0625 1.124995,-2.03385 1.125,-2.91406 -5e-6,-0.67187 -0.205734,-1.22395 -0.617187,-1.65625 -0.411463,-0.43229 -0.90365,-0.64843 -1.476563,-0.64844 -0.520836,1e-5 -0.989585,0.15365 -1.40625,0.46094 -0.41146,0.30209 -0.716147,0.7474 -0.914062,1.33593 l -0.289063,0 c 0.130208,-0.96353 0.463541,-1.70311 1,-2.21875 0.541665,-0.51561 1.216143,-0.77342 2.023438,-0.77343 0.85937,1e-5 1.575515,0.27605 2.148437,0.82812 0.578119,0.55209 0.867181,1.20313 0.867188,1.95313 -7e-6,0.53646 -0.125007,1.07292 -0.375,1.60937 -0.385423,0.84376 -1.010422,1.73698 -1.875,2.67969 -1.296879,1.41667 -2.106774,2.27083 -2.429688,2.5625 l 2.765625,0 c 0.562495,0 0.955724,-0.0208 1.179688,-0.0625 0.22916,-0.0417 0.434889,-0.125 0.617187,-0.25 0.182285,-0.13021 0.341139,-0.3125 0.476563,-0.54688 l 0.289062,0"
         style="font-size:16px;line-height:150%;font-family:Times New Roman;-inkscape-font-specification:Times New Roman;fill:#0000ff"
         id="path3154" />
      <path
         d="m 102.13594,-146.44034 -0.74219,2.03907 -6.250001,0 0,-0.28907 c 1.83854,-1.67708 3.132809,-3.04687 3.882813,-4.10937 0.749995,-1.0625 1.124998,-2.03385 1.124998,-2.91406 0,-0.67187 -0.205733,-1.22395 -0.617186,-1.65625 -0.411462,-0.43229 -0.903649,-0.64843 -1.476562,-0.64844 -0.520836,1e-5 -0.989586,0.15365 -1.40625,0.46094 -0.41146,0.30209 -0.716147,0.7474 -0.914063,1.33593 l -0.289062,0 c 0.130207,-0.96353 0.46354,-1.70311 1,-2.21875 0.541664,-0.51561 1.216143,-0.77342 2.023437,-0.77343 0.859371,1e-5 1.575516,0.27605 2.148436,0.82812 0.57812,0.55209 0.86718,1.20313 0.86719,1.95313 -1e-5,0.53646 -0.12501,1.07292 -0.375,1.60937 -0.38542,0.84376 -1.01042,1.73698 -1.875001,2.67969 -1.296878,1.41667 -2.106773,2.27083 -2.429687,2.5625 l 2.765625,0 c 0.562493,0 0.955723,-0.0208 1.179683,-0.0625 0.22916,-0.0417 0.43489,-0.125 0.61719,-0.25 0.18229,-0.13021 0.34114,-0.3125 0.47656,-0.54688 l 0.28907,0"
         style="font-size:16px;line-height:150%;font-family:Times New Roman;-inkscape-font-specification:Times New Roman;fill:#0000ff"
         id="path3156" />
      <path
         d="m 124.87187,-155.21377 0,0.28906 c -0.6875,0.0677 -1.25,0.20574 -1.6875,0.41406 -0.43229,0.20314 -0.86198,0.51564 -1.28906,0.9375 -0.42188,0.42188 -0.77344,0.89324 -1.05469,1.41406 -0.27604,0.51564 -0.50781,1.13022 -0.69531,1.84375 0.75,-0.51561 1.5026,-0.77343 2.25781,-0.77343 0.72395,0 1.35156,0.29167 1.88281,0.875 0.53125,0.58333 0.79687,1.33333 0.79688,2.25 -10e-6,0.88542 -0.26824,1.69271 -0.80469,2.42187 -0.64584,0.88542 -1.5,1.32813 -2.5625,1.32813 -0.72396,0 -1.33854,-0.23959 -1.84375,-0.71875 -0.98958,-0.93229 -1.48437,-2.14063 -1.48437,-3.625 0,-0.94792 0.1901,-1.84896 0.57031,-2.70313 0.38021,-0.85416 0.92187,-1.61197 1.625,-2.27344 0.70833,-0.66144 1.38541,-1.10676 2.03125,-1.33593 0.64583,-0.22916 1.24739,-0.34374 1.80469,-0.34375 l 0.45312,0 m -4.85937,5.46875 c -0.0938,0.70313 -0.14063,1.27083 -0.14063,1.70312 0,0.5 0.0911,1.04427 0.27344,1.63281 0.1875,0.58334 0.46354,1.04688 0.82812,1.39063 0.26563,0.24479 0.58854,0.36719 0.96875,0.36719 0.45312,0 0.85677,-0.21355 1.21094,-0.64063 0.35937,-0.42708 0.53906,-1.03646 0.53906,-1.82812 0,-0.89063 -0.17708,-1.66146 -0.53125,-2.3125 -0.35417,-0.65104 -0.85677,-0.97656 -1.50781,-0.97657 -0.19792,1e-5 -0.41146,0.0417 -0.64062,0.125 -0.22396,0.0833 -0.5573,0.26303 -1,0.53907"
         style="font-size:16px;line-height:150%;font-family:Times New Roman;-inkscape-font-specification:Times New Roman;fill:#0000ff"
         id="path3158" />
      <path
         d="m 141.4125,-152.9794 c 0.30208,-0.71353 0.68229,-1.26301 1.14062,-1.64844 0.46354,-0.39061 1.03906,-0.58592 1.72657,-0.58593 0.84895,1e-5 1.49999,0.27605 1.95312,0.82812 0.34374,0.41147 0.51562,0.85157 0.51563,1.32031 -10e-6,0.77084 -0.48438,1.56772 -1.45313,2.39063 0.65104,0.25521 1.14322,0.6198 1.47656,1.09375 0.33333,0.47396 0.5,1.03125 0.5,1.67187 0,0.91667 -0.29167,1.71094 -0.875,2.38282 -0.76042,0.875 -1.86198,1.3125 -3.30468,1.3125 -0.71355,0 -1.20053,-0.0885 -1.46094,-0.26563 -0.25521,-0.17708 -0.38281,-0.36719 -0.38281,-0.57031 0,-0.15104 0.0599,-0.28385 0.17968,-0.39844 0.125,-0.11458 0.27344,-0.17187 0.44532,-0.17187 0.1302,0 0.26302,0.0208 0.39843,0.0625 0.0885,0.026 0.28906,0.12239 0.60157,0.28906 0.31249,0.16146 0.52864,0.25781 0.64843,0.28906 0.19271,0.0573 0.39844,0.0859 0.61719,0.0859 0.53125,0 0.99218,-0.20573 1.38281,-0.61719 0.39583,-0.41146 0.59375,-0.89843 0.59375,-1.46094 0,-0.41145 -0.0911,-0.81249 -0.27343,-1.20312 -0.13543,-0.29166 -0.28386,-0.51302 -0.44532,-0.66406 -0.22396,-0.20833 -0.53125,-0.39583 -0.92187,-0.5625 -0.39063,-0.17187 -0.78907,-0.25781 -1.19531,-0.25782 l -0.25,0 0,-0.23437 c 0.41145,-0.0521 0.82291,-0.20052 1.23437,-0.44531 0.41666,-0.24479 0.71875,-0.53906 0.90625,-0.88282 0.1875,-0.34374 0.28125,-0.72134 0.28125,-1.13281 0,-0.53645 -0.16927,-0.96874 -0.50781,-1.29687 -0.33334,-0.33333 -0.75001,-0.49999 -1.25,-0.5 -0.8073,1e-5 -1.48177,0.4323 -2.02344,1.29687 l -0.25781,-0.125"
         style="font-size:16px;line-height:150%;font-family:Times New Roman;-inkscape-font-specification:Times New Roman"
         id="path3160" />
      <path
         d="m 164.3125,-152.9794 c 0.30208,-0.71353 0.68229,-1.26301 1.14062,-1.64844 0.46354,-0.39061 1.03906,-0.58592 1.72657,-0.58593 0.84895,1e-5 1.49999,0.27605 1.95312,0.82812 0.34375,0.41147 0.51562,0.85157 0.51563,1.32031 -1e-5,0.77084 -0.48438,1.56772 -1.45313,2.39063 0.65104,0.25521 1.14323,0.6198 1.47656,1.09375 0.33333,0.47396 0.5,1.03125 0.5,1.67187 0,0.91667 -0.29167,1.71094 -0.875,2.38282 -0.76042,0.875 -1.86198,1.3125 -3.30468,1.3125 -0.71355,0 -1.20052,-0.0885 -1.46094,-0.26563 -0.25521,-0.17708 -0.38281,-0.36719 -0.38281,-0.57031 0,-0.15104 0.0599,-0.28385 0.17968,-0.39844 0.125,-0.11458 0.27344,-0.17187 0.44532,-0.17187 0.1302,0 0.26302,0.0208 0.39843,0.0625 0.0885,0.026 0.28907,0.12239 0.60157,0.28906 0.31249,0.16146 0.52864,0.25781 0.64843,0.28906 0.19271,0.0573 0.39844,0.0859 0.61719,0.0859 0.53125,0 0.99219,-0.20573 1.38281,-0.61719 0.39583,-0.41146 0.59375,-0.89843 0.59375,-1.46094 0,-0.41145 -0.0911,-0.81249 -0.27343,-1.20312 -0.13542,-0.29166 -0.28386,-0.51302 -0.44532,-0.66406 -0.22396,-0.20833 -0.53125,-0.39583 -0.92187,-0.5625 -0.39063,-0.17187 -0.78907,-0.25781 -1.19531,-0.25782 l -0.25,0 0,-0.23437 c 0.41145,-0.0521 0.82291,-0.20052 1.23437,-0.44531 0.41667,-0.24479 0.71875,-0.53906 0.90625,-0.88282 0.1875,-0.34374 0.28125,-0.72134 0.28125,-1.13281 0,-0.53645 -0.16927,-0.96874 -0.50781,-1.29687 -0.33334,-0.33333 -0.75,-0.49999 -1.25,-0.5 -0.80729,1e-5 -1.48177,0.4323 -2.02344,1.29687 l -0.25781,-0.125"
         style="font-size:16px;line-height:150%;font-family:Times New Roman;-inkscape-font-specification:Times New Roman"
         id="path3162" />
      <path
         d="m 187.21249,-152.9794 c 0.30209,-0.71353 0.68229,-1.26301 1.14063,-1.64844 0.46354,-0.39061 1.03906,-0.58592 1.72656,-0.58593 0.84896,1e-5 1.5,0.27605 1.95313,0.82812 0.34374,0.41147 0.51562,0.85157 0.51562,1.32031 0,0.77084 -0.48438,1.56772 -1.45312,2.39063 0.65103,0.25521 1.14322,0.6198 1.47656,1.09375 0.33333,0.47396 0.49999,1.03125 0.5,1.67187 -1e-5,0.91667 -0.29167,1.71094 -0.875,2.38282 -0.76042,0.875 -1.86198,1.3125 -3.30469,1.3125 -0.71354,0 -1.20052,-0.0885 -1.46094,-0.26563 -0.25521,-0.17708 -0.38281,-0.36719 -0.38281,-0.57031 0,-0.15104 0.0599,-0.28385 0.17969,-0.39844 0.125,-0.11458 0.27344,-0.17187 0.44531,-0.17187 0.13021,0 0.26302,0.0208 0.39844,0.0625 0.0885,0.026 0.28906,0.12239 0.60156,0.28906 0.3125,0.16146 0.52864,0.25781 0.64844,0.28906 0.1927,0.0573 0.39843,0.0859 0.61719,0.0859 0.53124,0 0.99218,-0.20573 1.38281,-0.61719 0.39583,-0.41146 0.59374,-0.89843 0.59375,-1.46094 -1e-5,-0.41145 -0.0911,-0.81249 -0.27344,-1.20312 -0.13542,-0.29166 -0.28386,-0.51302 -0.44531,-0.66406 -0.22396,-0.20833 -0.53126,-0.39583 -0.92188,-0.5625 -0.39062,-0.17187 -0.78906,-0.25781 -1.19531,-0.25782 l -0.25,0 0,-0.23437 c 0.41146,-0.0521 0.82291,-0.20052 1.23438,-0.44531 0.41666,-0.24479 0.71874,-0.53906 0.90625,-0.88282 0.18749,-0.34374 0.28124,-0.72134 0.28125,-1.13281 -1e-5,-0.53645 -0.16928,-0.96874 -0.50782,-1.29687 -0.33333,-0.33333 -0.75,-0.49999 -1.25,-0.5 -0.80729,1e-5 -1.48177,0.4323 -2.02343,1.29687 l -0.25782,-0.125"
         style="font-size:16px;line-height:150%;font-family:Times New Roman;-inkscape-font-specification:Times New Roman"
         id="path3164" />
      <path
         style="fill:none;stroke:#000000;stroke-width:2.00000001;stroke-linecap:butt;stroke-linejoin:miter;stroke-opacity:1;stroke-miterlimit:10;stroke-dasharray:none"
         d="M 1.5,219 164,219"
         id="path3993"
         inkscape:connector-curvature="0"
         transform="matrix(0.51495016,0,0,0.51495016,49.25,-299.21377)" />
    </g>
    <flowRoot
       xml:space="preserve"
       id="flowRoot4327"
       style="font-size:12px;font-style:normal;font-weight:normal;line-height:125%;letter-spacing:0px;word-spacing:0px;fill:#000000;fill-opacity:1;stroke:none;font-family:Sans"><flowRegion
         id="flowRegion4329"><rect
           id="rect4331"
           width="61"
           height="129"
           x="33"
           y="-316" /></flowRegion><flowPara
         id="flowPara4333" /></flowRoot>  </g>
</svg>
